PathFileType	4	(X/Y/Z)	C:\Users\Basilio\Documents\Thesis Gigler\squatting_fais\c3dfiles\077\SJ_pre1\markers_experimental.trc
DataRate	CameraRate	NumFrames	NumMarkers	Units	OrigDataRate	OrigDataStartFrame	OrigNumFrames
200.000000	200.000000	4	60	mm	200.000000	390	1561
Frame#	Time	FHD			LBHD			RBHD			C7			T10			CLAV			LSHO			LUUPA			LMUPA			LDUPA			LLEP			LMEP			LRAD			LUL			LRFIN			RSHO			RUPA1			RMUPA			RDUPA			RLEP			RMEP			RRAD			RUL			RUFIN			LASI			RASI			USACR			LSACR			RSACR			LTHI1			LTHI2			LTHI3			LTHI4			LLFC			LMFC			LTIB1			LTIB2			LTIB3			LTIB4			LLMAL			LHEE			LMT1			LMT2			LMT5			RTHI			RTHI2			RTHI3			RTHI4			RLFC			RMFC			RTIB1			RTIB2			RTIB3			RTIB4			RLMAL			RMMAL			RHEE			RMT1			RMT2			RMT5			
		X1	Y1	Z1	X2	Y2	Z2	X3	Y3	Z3	X4	Y4	Z4	X5	Y5	Z5	X6	Y6	Z6	X7	Y7	Z7	X8	Y8	Z8	X9	Y9	Z9	X10	Y10	Z10	X11	Y11	Z11	X12	Y12	Z12	X13	Y13	Z13	X14	Y14	Z14	X15	Y15	Z15	X16	Y16	Z16	X17	Y17	Z17	X18	Y18	Z18	X19	Y19	Z19	X20	Y20	Z20	X21	Y21	Z21	X22	Y22	Z22	X23	Y23	Z23	X24	Y24	Z24	X25	Y25	Z25	X26	Y26	Z26	X27	Y27	Z27	X28	Y28	Z28	X29	Y29	Z29	X30	Y30	Z30	X31	Y31	Z31	X32	Y32	Z32	X33	Y33	Z33	X34	Y34	Z34	X35	Y35	Z35	X36	Y36	Z36	X37	Y37	Z37	X38	Y38	Z38	X39	Y39	Z39	X40	Y40	Z40	X41	Y41	Z41	X42	Y42	Z42	X43	Y43	Z43	X44	Y44	Z44	X45	Y45	Z45	X46	Y46	Z46	X47	Y47	Z47	X48	Y48	Z48	X49	Y49	Z49	X50	Y50	Z50	X51	Y51	Z51	X52	Y52	Z52	X53	Y53	Z53	X54	Y54	Z54	X55	Y55	Z55	X56	Y56	Z56	X57	Y57	Z57	X58	Y58	Z58	X59	Y59	Z59	X60	Y60	Z60	

391	1.95	-147.9582061767578	1802.11962890625	-908.2127075195315	-287.3461608886719	1699.3916015625	-987.4180908203127	-303.6802062988282	1694.962768554688	-842.959655761719	-360.1333312988282	1580.724365234375	-922.4880981445315	-450.8176269531251	1257.969116210938	-921.0169067382815	-204.9095306396485	1498.217651367188	-913.2122802734377	-253.9016571044922	1542.657592773438	-1104.589721679688	-315.1504821777344	1420.114135742188	-1275.890258789063	-290.8332519531251	1376.431884765625	-1277.162841796875	-331.1208801269532	1371.626342773438	-1321.943115234375	-339.2119140625001	1310.398071289063	-1355.734741210938	-422.1764221191407	1307.0126953125	-1328.20703125	-376.7468872070313	1083.474731445313	-1152.556640625	-329.8672485351563	1066.871215820313	-1096.3544921875	-335.9957885742188	1034.737670898438	-1203.479248046875	-246.265609741211	1534.985473632813	-726.1511230468751	-343.4764709472657	1420.379150390625	-555.1716918945314	-323.0926513671876	1374.840454101563	-553.3765258789064	-367.3139038085938	1368.701293945313	-512.6884155273439	-380.6748046875001	1304.768920898438	-484.399871826172	-462.7407836914064	1302.206787109375	-518.3695678710939	-402.3708801269532	1076.231079101563	-673.0059814453126	-347.1516418457032	1040.432983398438	-628.8428955078126	-349.8106384277344	1072.353271484375	-725.3704223632814	-296.0155334472657	1036.019287109375	-1049.131713867188	-306.0484313964844	1043.759887695313	-784.4896240234377	-487.6549072265626	1147.951904296875	-917.9439697265627	-499.884979248047	1121.363525390625	-947.7422485351565	-506.0176696777345	1117.488891601563	-892.488220214844	-378.8505554199219	838.3601684570315	-1146.672241210938	-342.6857910156251	764.1967773437501	-1164.441162109375	-294.6577758789063	771.1965942382815	-1164.1962890625	-364.1181945800782	707.2304077148439	-1155.430419921875	-320.0057067871094	564.5702514648439	-1165.046875	-287.5479736328126	520.6986694335939	-1043.829223632813	-291.9679870605469	331.5799255371094	-1141.77392578125	-340.6511535644532	300.8294372558594	-1210.513549804688	-303.2251892089844	291.6301269531251	-1184.536010742188	-310.5014038085938	207.5309143066407	-1165.323120117188	-385.5064697265626	101.3739471435547	-1216.066162109375	-431.2910156250001	45.90887832641602	-1165.039428710938	-214.7261047363282	59.50593566894533	-1173.787231445313	-218.2340850830079	61.85258102416994	-1216.64111328125	-341.1142272949219	102.5126495361328	-1136.158813476563	-382.2273864746094	725.4434814453126	-669.5791625976564	-334.7909545898438	679.9146728515626	-651.6984863281251	-301.3907470703126	686.2152709960939	-653.0317993164064	-346.2688903808594	598.5606079101564	-658.9657592773439	-335.0702819824219	533.1129760742189	-648.9957885742189	-281.6991271972657	506.729217529297	-762.5935668945314	-293.2149658203126	393.658905029297	-643.5717773437501	-370.2831115722657	325.2482910156251	-615.8605957031251	-326.3346252441407	314.3893432617188	-628.2920532226564	-318.7531433105469	266.5718078613282	-663.6723022460939	-408.201873779297	98.1480407714844	-618.7972412109376	-366.2700805664063	94.94838714599611	-701.9311523437501	-460.5812072753907	43.43793487548829	-677.9616088867189	-239.1709136962891	67.02447509765626	-626.3085327148439	-251.3661041259766	68.65464019775392	-590.3369750976564	-274.7111816406251	48.38578033447267	-544.7210693359376	
392	1.955	-145.728500366211	1799.8427734375	-907.9185791015627	-285.2813110351563	1697.583618164063	-987.2532958984377	-301.6166381835938	1693.537231445313	-842.8997802734377	-358.3158264160157	1579.5419921875	-922.3537597656252	-450.871795654297	1257.358032226563	-920.6938476562502	-203.5105133056641	1496.3935546875	-913.1135864257815	-252.2267761230469	1541.089599609375	-1104.223510742188	-314.0479736328126	1419.516479492188	-1275.992919921875	-288.9076538085938	1375.744506835938	-1277.85791015625	-330.6893920898438	1370.919921875	-1321.409790039063	-338.7245178222657	1310.199584960938	-1355.997436523438	-421.4763183593751	1307.140502929688	-1328.486694335938	-377.9521789550782	1083.353881835938	-1152.525146484375	-331.5182800292969	1066.3388671875	-1096.192993164063	-337.6153869628907	1033.723754882813	-1203.514526367188	-244.4400939941407	1533.250854492188	-726.0139770507814	-341.9152526855469	1419.456787109375	-554.9661865234376	-321.8193969726563	1373.856201171875	-553.2156982421876	-366.0644836425782	1367.933471679688	-512.2593383789064	-379.7502136230469	1304.268798828125	-484.1458129882814	-462.0750732421876	1302.196411132813	-517.9715576171876	-404.9840393066407	1075.118530273438	-672.9722900390626	-348.5914611816407	1039.666625976563	-629.1187744140626	-351.6554565429688	1070.773803710938	-725.5560913085939	-298.1437377929688	1035.2724609375	-1048.905639648438	-307.6253051757813	1042.700927734375	-784.5086059570315	-488.4019470214845	1147.867309570313	-917.729675292969	-499.9784240722657	1121.519897460938	-947.8645629882815	-505.264862060547	1117.382568359375	-892.4052734375002	-378.9625549316407	837.306335449219	-1147.06591796875	-342.3424682617188	764.0793457031251	-1165.443115234375	-294.4826660156251	771.5332641601565	-1165.192260742188	-363.6838073730469	706.8745117187501	-1156.701293945313	-317.9868164062501	564.5313720703126	-1166.502075195313	-285.6946105957032	520.8798217773439	-1045.505493164063	-290.7127685546876	331.2031555175782	-1142.53759765625	-339.6135559082032	300.7682495117188	-1211.381713867188	-302.2360229492188	291.2617492675782	-1185.178588867188	-309.7730407714844	207.6154937744141	-1165.6875	-385.243621826172	101.4612884521485	-1216.2216796875	-431.2966918945314	45.87880325317384	-1165.044189453125	-214.7245025634766	59.50300216674806	-1173.78173828125	-218.4566650390626	61.96337890625001	-1216.669189453125	-340.9510498046876	102.6322860717774	-1136.188720703125	-382.0569458007813	724.7551269531251	-668.5493774414064	-334.0915222167969	679.7557373046876	-650.5450439453126	-300.8436279296876	686.4797363281251	-652.1857299804689	-345.1367492675782	598.3285522460939	-657.5599365234376	-333.8599243164063	533.1111450195314	-647.6218261718751	-279.5964355468751	506.7977600097657	-760.7829589843751	-292.4401550292969	393.8047790527345	-642.2124633789064	-369.9429931640626	325.1626281738282	-614.8672485351564	-325.9159545898438	314.3970642089844	-627.2005615234376	-318.7182312011719	266.7315979003907	-663.0764770507814	-408.4548339843751	98.26481628417972	-618.7516479492189	-366.2903137207032	95.05898284912111	-701.6801757812501	-460.5815429687501	43.36711883544923	-678.1217651367189	-239.3308868408204	67.43414306640626	-625.3143920898439	-251.6779174804688	69.14629364013673	-589.4463500976564	-275.4281005859376	48.67710494995119	-543.9414062500001	
393	1.96	-143.7686157226563	1797.701782226563	-907.6857910156252	-283.3671264648438	1695.633056640625	-987.113220214844	-299.7767028808594	1691.701538085938	-842.7229614257815	-356.3052062988282	1578.267211914063	-922.184997558594	-450.8101196289064	1256.661254882813	-920.3574829101565	-201.8570098876954	1494.328247070313	-912.8313598632815	-250.0677337646485	1539.439575195313	-1103.591918945313	-312.3098754882813	1418.5556640625	-1275.84912109375	-288.3688659667969	1374.435180664063	-1276.932250976563	-330.9465332031251	1370.91015625	-1321.65869140625	-337.9322814941407	1309.735595703125	-1356.248291015625	-420.8009033203126	1307.301635742188	-1328.817749023438	-379.2922668457032	1083.134155273438	-1152.60009765625	-333.1530761718751	1065.69287109375	-1096.119140625	-339.3862609863282	1033.424072265625	-1203.466064453125	-242.6398620605469	1531.594604492188	-726.1137695312501	-340.3217163085938	1418.466674804688	-554.7335205078126	-320.6531677246094	1372.556396484375	-552.9395751953126	-364.7472229003907	1367.06591796875	-512.0614624023439	-379.0349731445313	1303.350708007813	-483.903045654297	-461.460906982422	1301.935546875	-517.4871215820314	-404.842254638672	1075.04052734375	-673.0394897460939	-349.8365783691407	1038.724975585938	-629.2778320312501	-352.9034729003907	1070.549438476563	-726.0330200195314	-300.2482604980469	1034.396362304688	-1048.878051757813	-309.2232971191407	1041.43896484375	-784.4647216796877	-489.4297790527345	1147.621948242188	-917.4646606445315	-501.4275207519532	1121.72314453125	-947.610290527344	-506.0085449218751	1117.23095703125	-892.3082275390627	-379.5110778808594	836.6593017578127	-1147.694458007813	-342.1790161132813	763.8093872070314	-1166.353759765625	-294.4000854492188	771.9356689453127	-1166.41748046875	-362.5232849121094	706.3170166015626	-1157.85009765625	-315.8894653320313	564.5782470703126	-1168.131958007813	-283.6811218261719	521.1942138671876	-1047.311645507813	-289.5364990234376	331.0818786621094	-1143.576782226563	-338.5822143554688	300.5934143066407	-1212.120849609375	-301.2641906738282	291.3654785156251	-1186.093505859375	-309.1697082519532	207.1278839111329	-1166.1337890625	-384.5170898437501	101.2337875366211	-1216.333618164063	-431.2804260253907	45.89978027343751	-1164.995971679688	-214.7677917480469	59.46460342407228	-1173.760498046875	-218.2612762451172	61.91324615478517	-1216.580200195313	-341.1316833496094	102.4598541259766	-1135.916137695313	-381.7864685058594	724.3541259765626	-667.3171997070314	-333.5778808593751	679.6498413085939	-649.3701171875001	-300.4189758300782	686.5525512695314	-650.9147338867189	-344.0072021484376	598.2025756835939	-656.0223388671876	-332.6734313964844	532.8596801757814	-646.0604248046876	-278.8309020996094	506.9367065429689	-759.4802856445314	-291.7872314453126	393.3048400878907	-640.8933715820314	-369.5496826171876	325.2733764648438	-614.0177612304689	-325.5811157226563	314.3163146972657	-626.2452392578126	-317.9759521484376	266.4326782226563	-661.9462890625001	-408.6178283691407	98.30020141601565	-618.6845703125001	-366.1706237792969	95.20989990234376	-701.4588012695314	-460.5511474609376	43.31092834472657	-678.2977905273439	-239.6620635986329	67.71700286865236	-624.5344848632814	-252.1297760009766	69.4408645629883	-588.6951293945314	-276.0432434082032	49.06367874145509	-543.3428344726564	
394	1.965	-142.0744018554688	1795.9970703125	-907.7405395507815	-281.3487243652344	1693.525756835938	-986.992858886719	-297.8866577148438	1689.205078125	-842.4711914062502	-354.4889831542969	1576.73876953125	-921.8890380859377	-450.7710876464845	1255.867309570313	-919.980407714844	-200.4881439208985	1492.376342773438	-912.7683715820315	-248.5097656250001	1537.861450195313	-1103.274780273438	-310.4919128417969	1417.487670898438	-1275.6474609375	-287.2565307617188	1373.510498046875	-1276.924072265625	-326.8432312011719	1369.431762695313	-1321.799682617188	-336.9933166503907	1308.927001953125	-1356.320556640625	-420.1261291503907	1307.404296875	-1329.072875976563	-381.0089111328126	1082.805297851563	-1152.59228515625	-334.6777038574219	1065.15966796875	-1096.075927734375	-340.9911499023438	1032.882202148438	-1203.370727539063	-240.7374267578126	1529.571411132813	-726.0455932617189	-338.7323913574219	1417.326171875	-554.5717773437501	-319.4794006347657	1371.1240234375	-552.9602661132814	-363.5755920410157	1366.02880859375	-511.7284240722657	-378.2271118164063	1302.5400390625	-483.6206359863282	-460.6929016113282	1301.763916015625	-516.9901733398439	-406.1366577148439	1074.561157226563	-673.0942382812501	-351.1992797851563	1037.795166015625	-629.3585815429689	-354.0150756835938	1069.749145507813	-726.1798095703126	-302.0205078125001	1033.381103515625	-1048.806396484375	-310.7929382324219	1040.160278320313	-784.6215820312502	-490.3758239746095	1147.073486328125	-917.2520751953127	-503.3299255371095	1120.943481445313	-947.1990356445315	-508.1900939941407	1116.654541015625	-891.9475097656252	-380.4351501464844	836.2869873046877	-1148.58984375	-341.8063049316407	763.5145263671876	-1167.710571289063	-293.5364379882813	771.9239501953127	-1167.05517578125	-361.1649780273438	705.6964111328126	-1159.188598632813	-313.7534790039063	564.2405395507814	-1169.761352539063	-281.8173522949219	521.3530273437501	-1049.108276367188	-288.3554687500001	330.8011474609376	-1144.3046875	-337.4706420898438	300.6860656738282	-1213.054809570313	-300.2722473144532	290.7218627929688	-1186.703369140625	-308.6961059570313	207.7156524658204	-1166.1142578125	-384.2547912597657	101.1512298583985	-1216.523803710938	-431.297576904297	45.93134689331055	-1165.030517578125	-214.7831726074219	59.52419662475587	-1173.753173828125	-217.9319763183594	61.74349594116212	-1216.4990234375	-340.9878540039063	102.5169830322266	-1136.026245117188	-381.6736450195313	723.8386230468751	-666.2890014648439	-333.1752624511719	679.3856811523439	-648.0490112304689	-299.9739990234376	686.6013183593751	-649.7470703125001	-342.8785400390626	598.0216674804689	-654.5218505859376	-331.5880737304688	532.6166992187501	-644.5244750976564	-276.7668457031251	506.740936279297	-757.5042114257814	-291.1945495605469	392.9097900390626	-639.5612792968751	-369.2037963867188	325.0996093750001	-613.1992187500001	-325.1736145019532	314.0783386230469	-625.5446166992189	-317.5373535156251	266.2177734375001	-660.9471435546876	-408.8074645996095	98.33152008056643	-618.6080322265626	-368.3179931640626	95.61006164550783	-701.8051147460939	-460.8225097656251	43.28424453735352	-678.2878417968751	-239.8655395507813	67.86363983154298	-623.9393920898439	-252.4809112548829	69.72129821777345	-588.1549682617189	-276.4675292968751	49.31136703491212	-542.9065551757814	
